<svg width="437" height="86" viewBox="0 0 437 86" fill="none" xmlns="http://www.w3.org/2000/svg">
<path d="M1.60001 85.312C0.533345 85.312 1.19209e-05 84.7787 1.19209e-05 83.712V1.60001C1.19209e-05 0.53334 0.533345 7.62939e-06 1.60001 7.62939e-06H25.024C26.0907 7.62939e-06 26.624 0.53334 26.624 1.60001V29.824H32V1.60001C32 0.53334 32.5333 7.62939e-06 33.6 7.62939e-06H57.024C58.0907 7.62939e-06 58.624 0.53334 58.624 1.60001V83.712C58.624 84.7787 58.0907 85.312 57.024 85.312H33.6C32.5333 85.312 32 84.7787 32 83.712V55.424H26.624V83.712C26.624 84.7787 26.0907 85.312 25.024 85.312H1.60001ZM65.6 85.312C64.5333 85.312 64 84.7787 64 83.712V1.60001C64 0.53334 64.5333 7.62939e-06 65.6 7.62939e-06H110.144C111.211 7.62939e-06 111.744 0.53334 111.744 1.60001V24C111.744 25.0667 111.211 25.6 110.144 25.6H90.624V30.912H110.144C111.211 30.912 111.744 31.4453 111.744 32.512V52.8C111.744 53.8667 111.211 54.4 110.144 54.4H90.624V59.712H110.144C111.211 59.712 111.744 60.2453 111.744 61.312V83.712C111.744 84.7787 111.211 85.312 110.144 85.312H65.6ZM133.509 85.312C132.528 85.312 131.674 84.9493 130.949 84.224L118.149 71.424C117.466 70.7413 117.125 69.888 117.125 68.864V1.60001C117.125 0.53334 117.658 7.62939e-06 118.725 7.62939e-06H142.149C143.216 7.62939e-06 143.749 0.53334 143.749 1.60001V54.4H149.125V1.60001C149.125 0.53334 149.658 7.62939e-06 150.725 7.62939e-06H174.149C175.216 7.62939e-06 175.749 0.53334 175.749 1.60001V54.4H181.125V1.60001C181.125 0.53334 181.658 7.62939e-06 182.725 7.62939e-06H206.149C207.216 7.62939e-06 207.749 0.53334 207.749 1.60001V68.864C207.749 69.888 207.408 70.7413 206.725 71.424L193.925 84.224C193.2 84.9493 192.346 85.312 191.365 85.312H177.285C176.261 85.312 175.408 84.9493 174.725 84.224L163.909 73.472H160.965L150.149 84.224C149.466 84.9493 148.613 85.312 147.589 85.312H133.509Z" fill="#DF0073"/>
<path d="M235.909 85.312C234.8 85.312 233.946 85.0347 233.349 84.48L226.245 77.312L214.149 65.28C213.68 64.8107 213.381 64.448 213.253 64.192C213.168 63.8933 213.125 63.4027 213.125 62.72V22.592C213.125 21.8667 213.168 21.376 213.253 21.12C213.381 20.864 213.68 20.5013 214.149 20.032L223.749 10.304L233.349 0.832008C233.733 0.448006 234.117 0.213338 234.501 0.128006C234.885 0.0426737 235.354 7.62939e-06 235.909 7.62939e-06H253.829C254.896 7.62939e-06 255.429 0.53334 255.429 1.60001V19.264C255.429 19.648 255.386 20.0107 255.301 20.352C255.258 20.6507 255.066 20.9707 254.725 21.312L246.277 29.632L239.557 36.48V49.92L247.109 57.6L254.725 65.024C255.066 65.3227 255.258 65.6427 255.301 65.984C255.386 66.3253 255.429 66.688 255.429 67.072V83.712C255.429 84.7787 254.896 85.312 253.829 85.312H235.909ZM277.134 85.312C276.153 85.312 275.299 84.9493 274.574 84.224L261.774 71.424C261.091 70.7413 260.75 69.888 260.75 68.864V16.384C260.75 15.4027 261.091 14.5493 261.774 13.824L274.574 1.02401C275.299 0.341342 276.153 7.62939e-06 277.134 7.62939e-06H303.374C304.398 7.62939e-06 305.251 0.341342 305.934 1.02401L318.734 13.824C319.459 14.5493 319.822 15.4027 319.822 16.384V68.864C319.822 69.888 319.459 70.7413 318.734 71.424L305.934 84.224C305.251 84.9493 304.398 85.312 303.374 85.312H277.134ZM290.062 59.712H290.51C292.259 59.712 293.134 58.496 293.134 56.064V29.184C293.134 26.7947 292.259 25.6 290.51 25.6H290.062C288.27 25.6 287.374 26.7947 287.374 29.184V56.064C287.374 58.496 288.27 59.712 290.062 59.712ZM326.85 85.312C325.783 85.312 325.25 84.7787 325.25 83.712V1.60001C325.25 0.53334 325.783 7.62939e-06 326.85 7.62939e-06H367.49C368.471 7.62939e-06 369.325 0.341342 370.05 1.02401L382.85 13.824C383.533 14.5493 383.874 15.4027 383.874 16.384V68.864C383.874 69.888 383.533 70.7413 382.85 71.424L370.05 84.224C369.325 84.9493 368.471 85.312 367.49 85.312H326.85ZM351.874 59.712H354.562C356.354 59.712 357.25 58.496 357.25 56.064V29.184C357.25 26.7947 356.354 25.6 354.562 25.6H351.874V59.712ZM390.85 85.312C389.783 85.312 389.25 84.7787 389.25 83.712V1.60001C389.25 0.53334 389.783 7.62939e-06 390.85 7.62939e-06H435.394C436.461 7.62939e-06 436.994 0.53334 436.994 1.60001V24C436.994 25.0667 436.461 25.6 435.394 25.6H415.874V30.912H435.394C436.461 30.912 436.994 31.4453 436.994 32.512V52.8C436.994 53.8667 436.461 54.4 435.394 54.4H415.874V59.712H435.394C436.461 59.712 436.994 60.2453 436.994 61.312V83.712C436.994 84.7787 436.461 85.312 435.394 85.312H390.85Z" fill="#FF2C99"/>
</svg>
